%TF.GenerationSoftware,KiCad,Pcbnew,7.0.6*%
%TF.CreationDate,2023-10-21T15:53:08+08:00*%
%TF.ProjectId,AudioPlug2SMA_M1V1,41756469-6f50-46c7-9567-32534d415f4d,rev?*%
%TF.SameCoordinates,Original*%
%TF.FileFunction,Soldermask,Top*%
%TF.FilePolarity,Negative*%
%FSLAX46Y46*%
G04 Gerber Fmt 4.6, Leading zero omitted, Abs format (unit mm)*
G04 Created by KiCad (PCBNEW 7.0.6) date 2023-10-21 15:53:08*
%MOMM*%
%LPD*%
G01*
G04 APERTURE LIST*
G04 Aperture macros list*
%AMRoundRect*
0 Rectangle with rounded corners*
0 $1 Rounding radius*
0 $2 $3 $4 $5 $6 $7 $8 $9 X,Y pos of 4 corners*
0 Add a 4 corners polygon primitive as box body*
4,1,4,$2,$3,$4,$5,$6,$7,$8,$9,$2,$3,0*
0 Add four circle primitives for the rounded corners*
1,1,$1+$1,$2,$3*
1,1,$1+$1,$4,$5*
1,1,$1+$1,$6,$7*
1,1,$1+$1,$8,$9*
0 Add four rect primitives between the rounded corners*
20,1,$1+$1,$2,$3,$4,$5,0*
20,1,$1+$1,$4,$5,$6,$7,0*
20,1,$1+$1,$6,$7,$8,$9,0*
20,1,$1+$1,$8,$9,$2,$3,0*%
G04 Aperture macros list end*
%ADD10C,4.400000*%
%ADD11O,1.500000X2.500000*%
%ADD12RoundRect,0.250000X-0.250000X-0.250000X0.250000X-0.250000X0.250000X0.250000X-0.250000X0.250000X0*%
%ADD13RoundRect,0.375000X-1.375000X-0.375000X1.375000X-0.375000X1.375000X0.375000X-1.375000X0.375000X0*%
G04 APERTURE END LIST*
D10*
%TO.C,REF\u002A\u002A*%
X83820000Y-87630000D03*
%TD*%
%TO.C,REF\u002A\u002A*%
X100330000Y-87630000D03*
%TD*%
%TO.C,REF\u002A\u002A*%
X100330000Y-115570000D03*
%TD*%
D11*
%TO.C,J3*%
X99100000Y-101600000D03*
X101600000Y-101600000D03*
X96600000Y-101600000D03*
%TD*%
D12*
%TO.C,J2*%
X81780000Y-106680000D03*
D13*
X83030000Y-104180000D03*
X83030000Y-109180000D03*
%TD*%
D10*
%TO.C,REF\u002A\u002A*%
X83820000Y-115570000D03*
%TD*%
D12*
%TO.C,J1*%
X81780000Y-96520000D03*
D13*
X83030000Y-94020000D03*
X83030000Y-99020000D03*
%TD*%
G36*
X100331866Y-85090113D02*
G01*
X100632416Y-85108292D01*
X100639855Y-85109196D01*
X100934174Y-85163133D01*
X100941450Y-85164926D01*
X101227106Y-85253939D01*
X101234113Y-85256597D01*
X101506974Y-85379402D01*
X101513609Y-85382885D01*
X101769671Y-85537678D01*
X101775839Y-85541935D01*
X102011380Y-85726470D01*
X102016989Y-85731439D01*
X102228560Y-85943010D01*
X102233529Y-85948619D01*
X102418064Y-86184160D01*
X102422321Y-86190328D01*
X102577114Y-86446390D01*
X102580597Y-86453025D01*
X102703402Y-86725886D01*
X102706060Y-86732893D01*
X102795073Y-87018549D01*
X102796866Y-87025825D01*
X102850803Y-87320144D01*
X102851707Y-87327583D01*
X102869887Y-87628132D01*
X102870000Y-87631876D01*
X102870000Y-99571000D01*
X102850315Y-99638039D01*
X102797511Y-99683794D01*
X102746000Y-99695000D01*
X98299000Y-99695000D01*
X98231961Y-99675315D01*
X98186206Y-99622511D01*
X98175000Y-99571000D01*
X98175000Y-98426530D01*
X98175075Y-98423488D01*
X98176055Y-98403538D01*
X98176652Y-98397479D01*
X98178342Y-98386082D01*
X98207651Y-98322656D01*
X98266597Y-98285145D01*
X98336466Y-98285457D01*
X98395075Y-98323494D01*
X98423815Y-98387179D01*
X98425000Y-98404277D01*
X98425000Y-98425000D01*
X100965000Y-98425000D01*
X100965000Y-90170000D01*
X99111362Y-90170000D01*
X99044323Y-90150315D01*
X99023681Y-90133681D01*
X97826319Y-88936319D01*
X97792834Y-88874996D01*
X97790000Y-88848638D01*
X97790000Y-86995000D01*
X86360000Y-86995000D01*
X86360000Y-88848638D01*
X86340315Y-88915677D01*
X86323681Y-88936319D01*
X85126319Y-90133681D01*
X85064996Y-90167166D01*
X85038638Y-90170000D01*
X83185000Y-90170000D01*
X83185000Y-92586000D01*
X83165315Y-92653039D01*
X83112511Y-92698794D01*
X83061000Y-92710000D01*
X81404000Y-92710000D01*
X81336961Y-92690315D01*
X81291206Y-92637511D01*
X81280000Y-92586000D01*
X81280000Y-87631877D01*
X81280113Y-87628133D01*
X81298292Y-87327583D01*
X81299196Y-87320144D01*
X81353133Y-87025825D01*
X81354926Y-87018549D01*
X81443939Y-86732893D01*
X81446597Y-86725886D01*
X81569402Y-86453025D01*
X81572885Y-86446390D01*
X81727678Y-86190328D01*
X81731935Y-86184160D01*
X81916470Y-85948619D01*
X81921439Y-85943010D01*
X82133010Y-85731439D01*
X82138619Y-85726470D01*
X82374160Y-85541935D01*
X82380328Y-85537678D01*
X82636390Y-85382885D01*
X82643025Y-85379402D01*
X82915886Y-85256597D01*
X82922893Y-85253939D01*
X83208549Y-85164926D01*
X83215825Y-85163133D01*
X83510144Y-85109196D01*
X83517583Y-85108292D01*
X83818134Y-85090113D01*
X83821878Y-85090000D01*
X100328122Y-85090000D01*
X100331866Y-85090113D01*
G37*
G36*
X85283039Y-100032185D02*
G01*
X85328794Y-100084989D01*
X85340000Y-100136500D01*
X85340000Y-101158500D01*
X85320315Y-101225539D01*
X85267511Y-101271294D01*
X85216000Y-101282500D01*
X83185000Y-101282500D01*
X83185000Y-101917500D01*
X85216000Y-101917500D01*
X85283039Y-101937185D01*
X85328794Y-101989989D01*
X85340000Y-102041500D01*
X85340000Y-103063500D01*
X85320315Y-103130539D01*
X85267511Y-103176294D01*
X85216000Y-103187500D01*
X85141362Y-103187500D01*
X85074323Y-103167815D01*
X85053681Y-103151181D01*
X84772500Y-102870000D01*
X81404000Y-102870000D01*
X81336961Y-102850315D01*
X81291206Y-102797511D01*
X81280000Y-102746000D01*
X81280000Y-100454000D01*
X81299685Y-100386961D01*
X81352489Y-100341206D01*
X81404000Y-100330000D01*
X84772500Y-100330000D01*
X84772500Y-100329999D01*
X85053681Y-100048819D01*
X85115004Y-100015334D01*
X85141362Y-100012500D01*
X85216000Y-100012500D01*
X85283039Y-100032185D01*
G37*
G36*
X102813039Y-103524685D02*
G01*
X102858794Y-103577489D01*
X102870000Y-103629000D01*
X102870000Y-115568122D01*
X102869887Y-115571866D01*
X102851707Y-115872416D01*
X102850803Y-115879855D01*
X102796866Y-116174174D01*
X102795073Y-116181450D01*
X102706060Y-116467106D01*
X102703402Y-116474113D01*
X102580597Y-116746974D01*
X102577114Y-116753609D01*
X102422321Y-117009671D01*
X102418064Y-117015839D01*
X102233529Y-117251380D01*
X102228560Y-117256989D01*
X102016989Y-117468560D01*
X102011380Y-117473529D01*
X101775839Y-117658064D01*
X101769671Y-117662321D01*
X101513609Y-117817114D01*
X101506974Y-117820597D01*
X101234113Y-117943402D01*
X101227106Y-117946060D01*
X100941450Y-118035073D01*
X100934174Y-118036866D01*
X100639855Y-118090803D01*
X100632416Y-118091707D01*
X100331866Y-118109887D01*
X100328122Y-118110000D01*
X83821878Y-118110000D01*
X83818134Y-118109887D01*
X83517583Y-118091707D01*
X83510144Y-118090803D01*
X83215825Y-118036866D01*
X83208549Y-118035073D01*
X82922893Y-117946060D01*
X82915886Y-117943402D01*
X82643025Y-117820597D01*
X82636390Y-117817114D01*
X82380328Y-117662321D01*
X82374160Y-117658064D01*
X82138619Y-117473529D01*
X82133010Y-117468560D01*
X81921439Y-117256989D01*
X81916470Y-117251380D01*
X81731935Y-117015839D01*
X81727678Y-117009671D01*
X81572885Y-116753609D01*
X81569402Y-116746974D01*
X81446597Y-116474113D01*
X81443939Y-116467106D01*
X81354926Y-116181450D01*
X81353133Y-116174174D01*
X81299196Y-115879855D01*
X81298292Y-115872416D01*
X81280113Y-115571866D01*
X81280000Y-115568122D01*
X81280000Y-110614000D01*
X81299685Y-110546961D01*
X81352489Y-110501206D01*
X81404000Y-110490000D01*
X83061000Y-110490000D01*
X83128039Y-110509685D01*
X83173794Y-110562489D01*
X83185000Y-110614000D01*
X83185000Y-113030000D01*
X85038638Y-113030000D01*
X85105677Y-113049685D01*
X85126319Y-113066319D01*
X86323681Y-114263681D01*
X86357166Y-114325004D01*
X86360000Y-114351362D01*
X86360000Y-116205000D01*
X97790000Y-116205000D01*
X97790000Y-114351362D01*
X97809685Y-114284323D01*
X97826319Y-114263681D01*
X99023681Y-113066319D01*
X99085004Y-113032834D01*
X99111362Y-113030000D01*
X100965000Y-113030000D01*
X100965000Y-104457500D01*
X100964999Y-104457499D01*
X100926680Y-104495819D01*
X100865356Y-104529303D01*
X100795665Y-104524319D01*
X100739732Y-104482447D01*
X100715315Y-104416982D01*
X100714999Y-104408137D01*
X100715000Y-103629000D01*
X100734685Y-103561960D01*
X100787489Y-103516206D01*
X100839000Y-103505000D01*
X102746000Y-103505000D01*
X102813039Y-103524685D01*
G37*
G36*
X95583177Y-93364685D02*
G01*
X95603819Y-93381319D01*
X98388681Y-96166181D01*
X98422166Y-96227504D01*
X98425000Y-96253862D01*
X98425000Y-98425000D01*
X98551000Y-98425000D01*
X98618039Y-98444685D01*
X98663794Y-98497489D01*
X98675000Y-98549000D01*
X98675000Y-99571000D01*
X98655315Y-99638039D01*
X98602511Y-99683794D01*
X98551000Y-99695000D01*
X95249999Y-99695000D01*
X94615000Y-100329999D01*
X94615000Y-102253138D01*
X94595315Y-102320177D01*
X94542511Y-102365932D01*
X94473353Y-102375876D01*
X94409797Y-102346851D01*
X94403319Y-102340819D01*
X94016319Y-101953819D01*
X93982834Y-101892496D01*
X93980000Y-101866138D01*
X93980000Y-101282500D01*
X93854000Y-101282500D01*
X93786961Y-101262815D01*
X93741206Y-101210011D01*
X93730000Y-101158500D01*
X93730000Y-100136500D01*
X93749685Y-100069461D01*
X93802489Y-100023706D01*
X93854000Y-100012500D01*
X93980000Y-100012500D01*
X93980000Y-100012499D01*
X94615000Y-99377499D01*
X94615000Y-98107500D01*
X93662500Y-97155000D01*
X91757499Y-97155000D01*
X90523819Y-98388681D01*
X90462496Y-98422166D01*
X90436138Y-98425000D01*
X85214000Y-98425000D01*
X85146961Y-98405315D01*
X85101206Y-98352511D01*
X85090000Y-98301000D01*
X85090000Y-96901000D01*
X82991500Y-96901000D01*
X82924461Y-96881315D01*
X82878706Y-96828511D01*
X82867500Y-96777000D01*
X82867500Y-96263000D01*
X82887185Y-96195961D01*
X82939989Y-96150206D01*
X82991500Y-96139000D01*
X85090000Y-96139000D01*
X85090000Y-94739000D01*
X85109685Y-94671961D01*
X85162489Y-94626206D01*
X85214000Y-94615000D01*
X87312500Y-94615000D01*
X87312500Y-94614999D01*
X88546181Y-93381319D01*
X88607504Y-93347834D01*
X88633862Y-93345000D01*
X95516138Y-93345000D01*
X95583177Y-93364685D01*
G37*
G36*
X93360677Y-101937185D02*
G01*
X93381319Y-101953819D01*
X94932500Y-103505000D01*
X96256692Y-103505000D01*
X96323731Y-103524685D01*
X96369486Y-103577489D01*
X96379430Y-103646647D01*
X96350405Y-103710203D01*
X96344373Y-103716681D01*
X95110357Y-104950696D01*
X95108153Y-104952795D01*
X95093355Y-104966207D01*
X95088647Y-104970070D01*
X95073842Y-104981050D01*
X95068781Y-104984432D01*
X95052962Y-104993913D01*
X95047593Y-104996783D01*
X95030923Y-105004667D01*
X95025301Y-105006996D01*
X95007943Y-105013207D01*
X95002113Y-105014976D01*
X94984227Y-105019455D01*
X94978256Y-105020643D01*
X94960019Y-105023348D01*
X94953966Y-105023944D01*
X94934017Y-105024925D01*
X94930971Y-105025000D01*
X93981529Y-105025000D01*
X93978483Y-105024925D01*
X93958535Y-105023944D01*
X93952486Y-105023348D01*
X93941095Y-105021660D01*
X93877667Y-104992357D01*
X93840149Y-104933415D01*
X93840455Y-104863546D01*
X93878486Y-104804933D01*
X93942167Y-104776186D01*
X93959278Y-104775000D01*
X93980000Y-104775000D01*
X93980000Y-104774999D01*
X92392500Y-103187500D01*
X85141362Y-103187500D01*
X85074323Y-103167815D01*
X85053681Y-103151181D01*
X84876319Y-102973819D01*
X84842834Y-102912496D01*
X84840000Y-102886138D01*
X84840000Y-102041500D01*
X84859685Y-101974461D01*
X84912489Y-101928706D01*
X84964000Y-101917500D01*
X93293638Y-101917500D01*
X93360677Y-101937185D01*
G37*
G36*
X94149333Y-99945680D02*
G01*
X94205266Y-99987551D01*
X94229684Y-100053015D01*
X94230000Y-100061862D01*
X94230000Y-101280971D01*
X94229925Y-101284017D01*
X94228944Y-101303963D01*
X94228348Y-101310011D01*
X94226660Y-101321403D01*
X94197359Y-101384832D01*
X94138417Y-101422350D01*
X94068548Y-101422046D01*
X94009935Y-101384016D01*
X93981187Y-101320335D01*
X93980000Y-101303222D01*
X93980000Y-101282500D01*
X84964000Y-101282500D01*
X84896961Y-101262815D01*
X84851206Y-101210011D01*
X84840000Y-101158500D01*
X84840000Y-100313862D01*
X84859685Y-100246823D01*
X84876319Y-100226181D01*
X85053681Y-100048819D01*
X85115004Y-100015334D01*
X85141362Y-100012500D01*
X93980000Y-100012500D01*
X94018318Y-99974182D01*
X94079641Y-99940696D01*
X94149333Y-99945680D01*
G37*
G36*
X101158039Y-103524685D02*
G01*
X101203794Y-103577489D01*
X101215000Y-103629000D01*
X101215000Y-104455971D01*
X101214925Y-104459017D01*
X101213944Y-104478963D01*
X101213348Y-104485011D01*
X101211660Y-104496403D01*
X101182359Y-104559832D01*
X101123417Y-104597350D01*
X101053548Y-104597046D01*
X100994935Y-104559016D01*
X100966187Y-104495335D01*
X100965000Y-104478222D01*
X100965000Y-104457500D01*
X100964999Y-104457499D01*
X96873819Y-108548681D01*
X96812496Y-108582166D01*
X96786138Y-108585000D01*
X85214000Y-108585000D01*
X85146961Y-108565315D01*
X85101206Y-108512511D01*
X85090000Y-108461000D01*
X85090000Y-107124500D01*
X82991500Y-107124500D01*
X82924461Y-107104815D01*
X82878706Y-107052011D01*
X82867500Y-107000500D01*
X82867500Y-106423000D01*
X82887185Y-106355961D01*
X82939989Y-106310206D01*
X82991500Y-106299000D01*
X85090000Y-106299000D01*
X85090000Y-104899000D01*
X85109685Y-104831961D01*
X85162489Y-104786206D01*
X85214000Y-104775000D01*
X93980000Y-104775000D01*
X93980000Y-104774999D01*
X93941682Y-104736681D01*
X93908197Y-104675358D01*
X93913181Y-104605666D01*
X93955053Y-104549733D01*
X94020517Y-104525316D01*
X94029363Y-104525000D01*
X94828946Y-104525000D01*
X94828946Y-104524999D01*
X95812627Y-103541319D01*
X95873950Y-103507834D01*
X95900308Y-103505000D01*
X101091000Y-103505000D01*
X101158039Y-103524685D01*
G37*
M02*
