%TF.GenerationSoftware,KiCad,Pcbnew,7.0.6*%
%TF.CreationDate,2023-10-21T15:53:08+08:00*%
%TF.ProjectId,AudioPlug2SMA_M1V1,41756469-6f50-46c7-9567-32534d415f4d,rev?*%
%TF.SameCoordinates,Original*%
%TF.FileFunction,Legend,Top*%
%TF.FilePolarity,Positive*%
%FSLAX46Y46*%
G04 Gerber Fmt 4.6, Leading zero omitted, Abs format (unit mm)*
G04 Created by KiCad (PCBNEW 7.0.6) date 2023-10-21 15:53:08*
%MOMM*%
%LPD*%
G01*
G04 APERTURE LIST*
%ADD10C,1.270000*%
%ADD11C,0.120000*%
G04 APERTURE END LIST*
D10*
X89155935Y-91742381D02*
X89155935Y-89323333D01*
X89155935Y-89323333D02*
X94235935Y-89323333D01*
X89155935Y-113332380D02*
X91574982Y-111639047D01*
X89155935Y-110429523D02*
X94235935Y-110429523D01*
X94235935Y-110429523D02*
X94235935Y-112364761D01*
X94235935Y-112364761D02*
X93994030Y-112848571D01*
X93994030Y-112848571D02*
X93752125Y-113090476D01*
X93752125Y-113090476D02*
X93268316Y-113332380D01*
X93268316Y-113332380D02*
X92542601Y-113332380D01*
X92542601Y-113332380D02*
X92058792Y-113090476D01*
X92058792Y-113090476D02*
X91816887Y-112848571D01*
X91816887Y-112848571D02*
X91574982Y-112364761D01*
X91574982Y-112364761D02*
X91574982Y-110429523D01*
D11*
%TO.C,J3*%
X102600000Y-104100000D02*
X102600000Y-99100000D01*
X102600000Y-104100000D02*
X99100000Y-104100000D01*
X102600000Y-99100000D02*
X99100000Y-99100000D01*
X98600000Y-103600000D02*
X95100000Y-103600000D01*
X98600000Y-99600000D02*
X95100000Y-99600000D01*
X94600000Y-103100000D02*
X94600000Y-100100000D01*
X98600000Y-103600000D02*
G75*
G03*
X99100000Y-104100000I500000J0D01*
G01*
X99100000Y-99100000D02*
G75*
G03*
X98600000Y-99600000I0J-500000D01*
G01*
X94600000Y-103100000D02*
G75*
G03*
X95100000Y-103600000I500000J0D01*
G01*
X95100000Y-99600000D02*
G75*
G03*
X94600000Y-100100000I0J-500000D01*
G01*
%TO.C,J2*%
X81280000Y-102870000D02*
X85090000Y-102870000D01*
X81280000Y-110490000D02*
X85090000Y-110490000D01*
X85090000Y-102870000D02*
X85090000Y-110490000D01*
%TO.C,J1*%
X81280000Y-92710000D02*
X85090000Y-92710000D01*
X81280000Y-100330000D02*
X85090000Y-100330000D01*
X85090000Y-92710000D02*
X85090000Y-100330000D01*
%TD*%
M02*
