%TF.GenerationSoftware,KiCad,Pcbnew,7.0.6*%
%TF.CreationDate,2023-10-21T15:53:08+08:00*%
%TF.ProjectId,AudioPlug2SMA_M1V1,41756469-6f50-46c7-9567-32534d415f4d,rev?*%
%TF.SameCoordinates,Original*%
%TF.FileFunction,Soldermask,Bot*%
%TF.FilePolarity,Negative*%
%FSLAX46Y46*%
G04 Gerber Fmt 4.6, Leading zero omitted, Abs format (unit mm)*
G04 Created by KiCad (PCBNEW 7.0.6) date 2023-10-21 15:53:08*
%MOMM*%
%LPD*%
G01*
G04 APERTURE LIST*
G04 Aperture macros list*
%AMRoundRect*
0 Rectangle with rounded corners*
0 $1 Rounding radius*
0 $2 $3 $4 $5 $6 $7 $8 $9 X,Y pos of 4 corners*
0 Add a 4 corners polygon primitive as box body*
4,1,4,$2,$3,$4,$5,$6,$7,$8,$9,$2,$3,0*
0 Add four circle primitives for the rounded corners*
1,1,$1+$1,$2,$3*
1,1,$1+$1,$4,$5*
1,1,$1+$1,$6,$7*
1,1,$1+$1,$8,$9*
0 Add four rect primitives between the rounded corners*
20,1,$1+$1,$2,$3,$4,$5,0*
20,1,$1+$1,$4,$5,$6,$7,0*
20,1,$1+$1,$6,$7,$8,$9,0*
20,1,$1+$1,$8,$9,$2,$3,0*%
G04 Aperture macros list end*
%ADD10C,4.400000*%
%ADD11O,1.500000X2.500000*%
%ADD12RoundRect,0.375000X-1.375000X-0.375000X1.375000X-0.375000X1.375000X0.375000X-1.375000X0.375000X0*%
G04 APERTURE END LIST*
D10*
%TO.C,REF\u002A\u002A*%
X83820000Y-87630000D03*
%TD*%
%TO.C,REF\u002A\u002A*%
X100330000Y-87630000D03*
%TD*%
%TO.C,REF\u002A\u002A*%
X100330000Y-115570000D03*
%TD*%
D11*
%TO.C,J3*%
X99100000Y-101600000D03*
X101600000Y-101600000D03*
X96600000Y-101600000D03*
%TD*%
D12*
%TO.C,J2*%
X83030000Y-104180000D03*
X83030000Y-109180000D03*
%TD*%
D10*
%TO.C,REF\u002A\u002A*%
X83820000Y-115570000D03*
%TD*%
D12*
%TO.C,J1*%
X83030000Y-94020000D03*
X83030000Y-99020000D03*
%TD*%
G36*
X93360677Y-101937185D02*
G01*
X93381319Y-101953819D01*
X94932500Y-103505000D01*
X102746000Y-103505000D01*
X102813039Y-103524685D01*
X102858794Y-103577489D01*
X102870000Y-103629000D01*
X102870000Y-104901000D01*
X102850315Y-104968039D01*
X102797511Y-105013794D01*
X102746000Y-105025000D01*
X101089000Y-105025000D01*
X101021961Y-105005315D01*
X100976206Y-104952511D01*
X100965000Y-104901000D01*
X100965000Y-104775000D01*
X94031362Y-104775000D01*
X93964323Y-104755315D01*
X93943681Y-104738681D01*
X92392500Y-103187500D01*
X85141362Y-103187500D01*
X85074323Y-103167815D01*
X85053681Y-103151181D01*
X84876319Y-102973819D01*
X84842834Y-102912496D01*
X84840000Y-102886138D01*
X84840000Y-102041500D01*
X84859685Y-101974461D01*
X84912489Y-101928706D01*
X84964000Y-101917500D01*
X93293638Y-101917500D01*
X93360677Y-101937185D01*
G37*
G36*
X98618039Y-98444685D02*
G01*
X98663794Y-98497489D01*
X98675000Y-98549000D01*
X98675000Y-99571000D01*
X98655315Y-99638039D01*
X98602511Y-99683794D01*
X98551000Y-99695000D01*
X96202499Y-99695000D01*
X94651319Y-101246181D01*
X94589996Y-101279666D01*
X94563638Y-101282500D01*
X84964000Y-101282500D01*
X84896961Y-101262815D01*
X84851206Y-101210011D01*
X84840000Y-101158500D01*
X84840000Y-100313862D01*
X84859685Y-100246823D01*
X84876319Y-100226181D01*
X85053681Y-100048819D01*
X85115004Y-100015334D01*
X85141362Y-100012500D01*
X93980000Y-100012500D01*
X93980000Y-100012499D01*
X95531181Y-98461319D01*
X95592504Y-98427834D01*
X95618862Y-98425000D01*
X98551000Y-98425000D01*
X98618039Y-98444685D01*
G37*
G36*
X100331866Y-85090113D02*
G01*
X100632416Y-85108292D01*
X100639855Y-85109196D01*
X100934174Y-85163133D01*
X100941450Y-85164926D01*
X101227106Y-85253939D01*
X101234113Y-85256597D01*
X101506974Y-85379402D01*
X101513609Y-85382885D01*
X101769671Y-85537678D01*
X101775839Y-85541935D01*
X102011380Y-85726470D01*
X102016989Y-85731439D01*
X102228560Y-85943010D01*
X102233529Y-85948619D01*
X102418064Y-86184160D01*
X102422321Y-86190328D01*
X102577114Y-86446390D01*
X102580597Y-86453025D01*
X102703402Y-86725886D01*
X102706060Y-86732893D01*
X102795073Y-87018549D01*
X102796866Y-87025825D01*
X102850803Y-87320144D01*
X102851707Y-87327583D01*
X102869887Y-87628132D01*
X102870000Y-87631876D01*
X102870000Y-99571000D01*
X102850315Y-99638039D01*
X102797511Y-99683794D01*
X102746000Y-99695000D01*
X98299000Y-99695000D01*
X98231961Y-99675315D01*
X98186206Y-99622511D01*
X98175000Y-99571000D01*
X98175000Y-98549000D01*
X98194685Y-98481961D01*
X98247489Y-98436206D01*
X98299000Y-98425000D01*
X100965000Y-98425000D01*
X100965000Y-90170000D01*
X99111362Y-90170000D01*
X99044323Y-90150315D01*
X99023681Y-90133681D01*
X97826319Y-88936319D01*
X97792834Y-88874996D01*
X97790000Y-88848638D01*
X97790000Y-86995000D01*
X86360000Y-86995000D01*
X86360000Y-88848638D01*
X86340315Y-88915677D01*
X86323681Y-88936319D01*
X85126319Y-90133681D01*
X85064996Y-90167166D01*
X85038638Y-90170000D01*
X83185000Y-90170000D01*
X83185000Y-92586000D01*
X83165315Y-92653039D01*
X83112511Y-92698794D01*
X83061000Y-92710000D01*
X81404000Y-92710000D01*
X81336961Y-92690315D01*
X81291206Y-92637511D01*
X81280000Y-92586000D01*
X81280000Y-87631877D01*
X81280113Y-87628133D01*
X81298292Y-87327583D01*
X81299196Y-87320144D01*
X81353133Y-87025825D01*
X81354926Y-87018549D01*
X81443939Y-86732893D01*
X81446597Y-86725886D01*
X81569402Y-86453025D01*
X81572885Y-86446390D01*
X81727678Y-86190328D01*
X81731935Y-86184160D01*
X81916470Y-85948619D01*
X81921439Y-85943010D01*
X82133010Y-85731439D01*
X82138619Y-85726470D01*
X82374160Y-85541935D01*
X82380328Y-85537678D01*
X82636390Y-85382885D01*
X82643025Y-85379402D01*
X82915886Y-85256597D01*
X82922893Y-85253939D01*
X83208549Y-85164926D01*
X83215825Y-85163133D01*
X83510144Y-85109196D01*
X83517583Y-85108292D01*
X83818134Y-85090113D01*
X83821878Y-85090000D01*
X100328122Y-85090000D01*
X100331866Y-85090113D01*
G37*
G36*
X85283039Y-100032185D02*
G01*
X85328794Y-100084989D01*
X85340000Y-100136500D01*
X85340000Y-101158500D01*
X85320315Y-101225539D01*
X85267511Y-101271294D01*
X85216000Y-101282500D01*
X83185000Y-101282500D01*
X83185000Y-101917500D01*
X85216000Y-101917500D01*
X85283039Y-101937185D01*
X85328794Y-101989989D01*
X85340000Y-102041500D01*
X85340000Y-103063500D01*
X85320315Y-103130539D01*
X85267511Y-103176294D01*
X85216000Y-103187500D01*
X85141362Y-103187500D01*
X85074323Y-103167815D01*
X85053681Y-103151181D01*
X84772500Y-102870000D01*
X81404000Y-102870000D01*
X81336961Y-102850315D01*
X81291206Y-102797511D01*
X81280000Y-102746000D01*
X81280000Y-100454000D01*
X81299685Y-100386961D01*
X81352489Y-100341206D01*
X81404000Y-100330000D01*
X84772500Y-100330000D01*
X84772500Y-100329999D01*
X85053681Y-100048819D01*
X85115004Y-100015334D01*
X85141362Y-100012500D01*
X85216000Y-100012500D01*
X85283039Y-100032185D01*
G37*
G36*
X102813039Y-103524685D02*
G01*
X102858794Y-103577489D01*
X102870000Y-103629000D01*
X102870000Y-115568122D01*
X102869887Y-115571866D01*
X102851707Y-115872416D01*
X102850803Y-115879855D01*
X102796866Y-116174174D01*
X102795073Y-116181450D01*
X102706060Y-116467106D01*
X102703402Y-116474113D01*
X102580597Y-116746974D01*
X102577114Y-116753609D01*
X102422321Y-117009671D01*
X102418064Y-117015839D01*
X102233529Y-117251380D01*
X102228560Y-117256989D01*
X102016989Y-117468560D01*
X102011380Y-117473529D01*
X101775839Y-117658064D01*
X101769671Y-117662321D01*
X101513609Y-117817114D01*
X101506974Y-117820597D01*
X101234113Y-117943402D01*
X101227106Y-117946060D01*
X100941450Y-118035073D01*
X100934174Y-118036866D01*
X100639855Y-118090803D01*
X100632416Y-118091707D01*
X100331866Y-118109887D01*
X100328122Y-118110000D01*
X83821878Y-118110000D01*
X83818134Y-118109887D01*
X83517583Y-118091707D01*
X83510144Y-118090803D01*
X83215825Y-118036866D01*
X83208549Y-118035073D01*
X82922893Y-117946060D01*
X82915886Y-117943402D01*
X82643025Y-117820597D01*
X82636390Y-117817114D01*
X82380328Y-117662321D01*
X82374160Y-117658064D01*
X82138619Y-117473529D01*
X82133010Y-117468560D01*
X81921439Y-117256989D01*
X81916470Y-117251380D01*
X81731935Y-117015839D01*
X81727678Y-117009671D01*
X81572885Y-116753609D01*
X81569402Y-116746974D01*
X81446597Y-116474113D01*
X81443939Y-116467106D01*
X81354926Y-116181450D01*
X81353133Y-116174174D01*
X81299196Y-115879855D01*
X81298292Y-115872416D01*
X81280113Y-115571866D01*
X81280000Y-115568122D01*
X81280000Y-110614000D01*
X81299685Y-110546961D01*
X81352489Y-110501206D01*
X81404000Y-110490000D01*
X83061000Y-110490000D01*
X83128039Y-110509685D01*
X83173794Y-110562489D01*
X83185000Y-110614000D01*
X83185000Y-113030000D01*
X85038638Y-113030000D01*
X85105677Y-113049685D01*
X85126319Y-113066319D01*
X86323681Y-114263681D01*
X86357166Y-114325004D01*
X86360000Y-114351362D01*
X86360000Y-116205000D01*
X97790000Y-116205000D01*
X97790000Y-114351362D01*
X97809685Y-114284323D01*
X97826319Y-114263681D01*
X99023681Y-113066319D01*
X99085004Y-113032834D01*
X99111362Y-113030000D01*
X100965000Y-113030000D01*
X100965000Y-104775000D01*
X100839000Y-104775000D01*
X100771961Y-104755315D01*
X100726206Y-104702511D01*
X100715000Y-104651000D01*
X100715000Y-103629000D01*
X100734685Y-103561961D01*
X100787489Y-103516206D01*
X100839000Y-103505000D01*
X102746000Y-103505000D01*
X102813039Y-103524685D01*
G37*
M02*
