M48
; DRILL file {KiCad 7.0.6} date Sat Oct 21 15:53:11 2023
; FORMAT={-:-/ absolute / inch / decimal}
; #@! TF.CreationDate,2023-10-21T15:53:11+08:00
; #@! TF.GenerationSoftware,Kicad,Pcbnew,7.0.6
; #@! TF.FileFunction,Plated,1,2,PTH
FMAT,2
INCH
; #@! TA.AperFunction,Plated,PTH,ViaDrill
T1C0.0160
; #@! TA.AperFunction,Plated,PTH,ComponentDrill
T2C0.0197
; #@! TA.AperFunction,Plated,PTH,ComponentDrill
T3C0.0866
%
G90
G05
T1
X3.25Y-3.5
X3.25Y-3.55
X3.25Y-3.6
X3.25Y-3.65
X3.25Y-3.7
X3.25Y-3.75
X3.25Y-3.85
X3.25Y-3.9
X3.25Y-3.95
X3.25Y-4.0
X3.25Y-4.05
X3.25Y-4.1
X3.25Y-4.15
X3.25Y-4.25
X3.25Y-4.3
X3.25Y-4.35
X3.25Y-4.4
X3.25Y-4.45
X3.25Y-4.5
X3.3Y-3.525
X3.3Y-3.75
X3.3Y-3.85
X3.3Y-3.9625
X3.3Y-4.0375
X3.3Y-4.15
X3.3Y-4.25
X3.3Y-4.475
X3.35Y-3.4
X3.35Y-3.5
X3.35Y-3.75
X3.35Y-3.85
X3.35Y-3.9625
X3.35Y-4.0375
X3.35Y-4.15
X3.35Y-4.25
X3.35Y-4.5
X3.35Y-4.6
X3.375Y-3.45
X3.375Y-4.55
X3.4Y-3.4
X3.4Y-3.75
X3.4Y-3.85
X3.4Y-3.9625
X3.4Y-4.0375
X3.4Y-4.15
X3.4Y-4.25
X3.4Y-4.6
X3.45Y-3.4
X3.45Y-3.75
X3.45Y-3.85
X3.45Y-3.9625
X3.45Y-4.0375
X3.45Y-4.15
X3.45Y-4.25
X3.45Y-4.6
X3.475Y-3.725
X3.5Y-3.4
X3.5Y-3.7
X3.5Y-3.85
X3.5Y-3.9625
X3.5Y-4.0375
X3.5Y-4.15
X3.5Y-4.25
X3.5Y-4.6
X3.55Y-3.4
X3.55Y-3.7
X3.55Y-3.85
X3.55Y-3.9625
X3.55Y-4.0375
X3.55Y-4.15
X3.55Y-4.25
X3.55Y-4.6
X3.575Y-3.825
X3.6Y-3.4
X3.6Y-3.7
X3.6Y-3.8
X3.6Y-3.9625
X3.6Y-4.0375
X3.6Y-4.15
X3.6Y-4.25
X3.6Y-4.6
X3.65Y-3.4
X3.65Y-3.7
X3.65Y-3.8
X3.65Y-3.9625
X3.65Y-4.0375
X3.65Y-4.15
X3.65Y-4.25
X3.65Y-4.6
X3.7Y-3.4
X3.7Y-3.7
X3.7Y-3.8
X3.7Y-3.9625
X3.7Y-4.075
X3.7Y-4.15
X3.7Y-4.25
X3.7Y-4.6
X3.725Y-3.825
X3.725Y-4.1125
X3.75Y-3.4
X3.75Y-3.7
X3.75Y-3.85
X3.75Y-3.9
X3.75Y-3.95
X3.75Y-4.0
X3.75Y-4.15
X3.75Y-4.25
X3.75Y-4.6
X3.775Y-3.725
X3.775Y-4.125
X3.8Y-3.4
X3.8Y-3.75
X3.8Y-4.1
X3.8Y-4.25
X3.8Y-4.6
X3.825Y-3.775
X3.825Y-4.225
X3.85Y-3.4
X3.85Y-3.8
X3.85Y-3.85
X3.85Y-3.9
X3.85Y-4.2
X3.85Y-4.6
X3.875Y-3.45
X3.875Y-4.175
X3.875Y-4.55
X3.9Y-3.4
X3.9Y-3.5
X3.9Y-3.9
X3.9Y-4.15
X3.9Y-4.5
X3.9Y-4.6
X3.925Y-4.125
X3.95Y-3.525
X3.95Y-3.9
X3.95Y-3.95
X3.95Y-4.05
X3.95Y-4.1
X3.95Y-4.475
X4.0Y-3.55
X4.0Y-3.6
X4.0Y-3.65
X4.0Y-3.7
X4.0Y-3.75
X4.0Y-3.8
X4.0Y-3.85
X4.0Y-3.9
X4.0Y-4.1
X4.0Y-4.15
X4.0Y-4.2
X4.0Y-4.25
X4.0Y-4.3
X4.0Y-4.35
X4.0Y-4.4
X4.0Y-4.45
X4.0Y-4.5
T3
X3.3Y-3.45
X3.3Y-4.55
X3.95Y-3.45
X3.95Y-4.55
T2
G00X3.8031Y-4.0197
M15
G01X3.8031Y-3.9803
M16
G05
G00X3.9016Y-4.0197
M15
G01X3.9016Y-3.9803
M16
G05
G00X4.0Y-4.0197
M15
G01X4.0Y-3.9803
M16
G05
T0
M30
